<svg width="116" height="116" viewBox="0 0 116 116" fill="none" xmlns="http://www.w3.org/2000/svg">
<rect width="116" height="116" rx="58" fill="white"/>
<path d="M45.53 30H58.97C63.3433 30 66.6233 31.1733 68.81 33.52C70.9967 35.8667 72.09 39.3067 72.09 43.84V72.16C72.09 76.6933 70.9967 80.1333 68.81 82.48C66.6233 84.8267 63.3433 86 58.97 86H45.53V30ZM58.81 78C60.25 78 61.3433 77.5733 62.09 76.72C62.89 75.8667 63.29 74.48 63.29 72.56V43.44C63.29 41.52 62.89 40.1333 62.09 39.28C61.3433 38.4267 60.25 38 58.81 38H54.33V78H58.81Z" fill="black"/>
</svg>
